<?xml version="1.0" encoding="UTF-8" standalone="no"?>
<svg
   viewBox="0 0 1600 550"
   version="1.1"
   id="svg240"
   sodipodi:docname="bg_form.svg"
   width="1600"
   height="550"
   inkscape:version="1.2 (dc2aedaf03, 2022-05-15)"
   xmlns:inkscape="http://www.inkscape.org/namespaces/inkscape"
   xmlns:sodipodi="http://sodipodi.sourceforge.net/DTD/sodipodi-0.dtd"
   xmlns="http://www.w3.org/2000/svg"
   xmlns:svg="http://www.w3.org/2000/svg">
  <defs
     id="defs244" />
  <sodipodi:namedview
     id="namedview242"
     pagecolor="#ffffff"
     bordercolor="#999999"
     borderopacity="1"
     inkscape:showpageshadow="0"
     inkscape:pageopacity="0"
     inkscape:pagecheckerboard="0"
     inkscape:deskcolor="#d1d1d1"
     showgrid="false"
     inkscape:zoom="0.28969281"
     inkscape:cx="1075.2769"
     inkscape:cy="94.928141"
     inkscape:window-width="1920"
     inkscape:window-height="991"
     inkscape:window-x="-9"
     inkscape:window-y="-9"
     inkscape:window-maximized="1"
     inkscape:current-layer="svg240" />
  <rect
     fill="#f59e0b"
     width="1600"
     height="550"
     id="rect214"
     x="0"
     y="0"
     style="stroke-width:0.781736" />
  <polygon
     fill="#c2410c"
     points="957,450 539,900 1396,900 "
     id="polygon216"
     transform="translate(0,-341.58226)" />
  <polygon
     fill="#9a3412"
     points="957,450 872.9,900 1396,900 "
     id="polygon218"
     transform="translate(0,-341.58226)" />
  <polygon
     fill="#ce212c"
     points="-60,900 398,662 816,900 "
     id="polygon220"
     transform="translate(0,-341.58226)" />
  <polygon
     fill="#a31d26"
     points="337,900 398,662 816,900 "
     id="polygon222"
     transform="translate(0,-341.58226)" />
  <polygon
     fill="#d40049"
     points="1203,546 1552,900 876,900 "
     id="polygon224"
     transform="translate(0,-341.58226)" />
  <polygon
     fill="#a8003c"
     points="1203,546 1552,900 1162,900 "
     id="polygon226"
     transform="translate(0,-341.58226)" />
  <polygon
     fill="#d20068"
     points="641,695 886,900 367,900 "
     id="polygon228"
     transform="translate(0,-341.58226)" />
  <polygon
     fill="#a60053"
     points="587,900 641,695 886,900 "
     id="polygon230"
     transform="translate(0,-341.58226)" />
  <polygon
     fill="#c40089"
     points="1710,900 1401,632 1096,900 "
     id="polygon232"
     transform="translate(0,-341.58226)" />
  <polygon
     fill="#9c006d"
     points="1710,900 1401,632 1365,900 "
     id="polygon234"
     transform="translate(0,-341.58226)" />
  <polygon
     fill="#aa00aa"
     points="1210,900 971,687 725,900 "
     id="polygon236"
     transform="translate(0,-341.58226)" />
  <polygon
     fill="#880088"
     points="943,900 1210,900 971,687 "
     id="polygon238"
     transform="translate(0,-341.58226)" />
</svg>
